[img]http://img152.imageshack.us/img152/1689/postera.jpg[/img]
[code]
                      Sacrifice DVDSCR AC3 XViD - IMAGiNE
********************************************************************************************************************

Ripper ...........:IMAGiNE                                        IMDB Rating.......:n/a                             
Video Codec.......:XVID                                           Release Date......:14/02/11
Audio Codec.......:AC-3                                           Theatre Date......:n/a
Audio Bitrate.....:192                                            Runtime...........:1h 39mn
Subtitles.........:NIL                                            Language..........:ENGLISH
Resolution........:720 x 384                                      IMDb URL..........:http://www.imdb.com/title/tt1630564/


DETAILS:

Video
ID                               : 0
Format                           : MPEG-4 Visual
Format profile                   : Advanced Simple@L5
Format settings, BVOP            : Yes
Format settings, QPel            : No
Format settings, GMC             : No warppoints
Format settings, Matrix          : Default (MPEG)
Muxing mode                      : Packed bitstream
Codec ID                         : XVID
Codec ID/Hint                    : XviD
Duration                         : 1h 39mn
Bit rate                         : 1 781 Kbps
Width                            : 720 pixels
Height                           : 384 pixels
Display aspect ratio             : 1.875
Frame rate                       : 23.976 fps
Color space                      : YUV
Chroma subsampling               : 4:2:0
Bit depth                        : 8 bits
Scan type                        : Progressive
Bits/(Pixel*Frame)               : 0.269
Stream size                      : 1.24 GiB (90%)
Writing library                  : XviD 1.2.1 (UTC 2008-12-04)

Audio
ID                               : 1
Format                           : AC-3
Format/Info                      : Audio Coding 3
Mode extension                   : CM (complete main)
Codec ID                         : 2000
Duration                         : 1h 39mn
Bit rate mode                    : Constant
Bit rate                         : 192 Kbps
Channel(s)                       : 2 channels
Sampling rate                    : 48.0 KHz
Bit depth                        : 16 bits
Stream size                      : 137 MiB (10%)
Alignment                        : Aligned on interleaves
Interleave, duration             : 42 ms (1.00 video frame)
Interleave, preload duration     : 512 ms


SOURCES:

VIDEO: peeraccess... Thanks
AUDIO: peeraccess... Thanks

NOTES:

IMAGiNE bringing you another release..........Sacrifice 2011....

Here we are with our encode of this movie for you all.. Now for the video we just made a script
containing white balance, rgb eq, sharpness, chroma, brightness, contrast etc.
With the audio it was just a acase of muxing the audio back to our encode...

Enjoy 
[/code]
Screens:
[img]http://img585.imageshack.us/img585/3056/34226713.jpg[/img]
[img]http://img811.imageshack.us/img811/608/25828263.jpg[/img]
[img]http://img146.imageshack.us/img146/3919/87606271.jpg[/img]